<?xml version="1.0" encoding="utf-8"?>
<!-- Generator: Adobe Illustrator 26.0.1, SVG Export Plug-In . SVG Version: 6.00 Build 0)  -->
<svg version="1.1" id="Layer_1" xmlns="http://www.w3.org/2000/svg" xmlns:xlink="http://www.w3.org/1999/xlink" x="0px" y="0px"
	 viewBox="0 0 340 400" style="enable-background:new 0 0 340 400;" xml:space="preserve">
<style type="text/css">
	.st0{fill:url(#SVGID_1_);}
	.st1{fill:#FFFFFF;}
	.st2{fill:url(#SVGID_00000073002240678173913660000009106437223857262776_);}
</style>
<g>
	<g>
		<linearGradient id="SVGID_1_" gradientUnits="userSpaceOnUse" x1="256.5618" y1="111.2178" x2="42.1261" y2="111.2178">
			<stop  offset="0" style="stop-color:#E027C5"/>
			<stop  offset="5.961227e-02" style="stop-color:#D328BF"/>
			<stop  offset="0.2584" style="stop-color:#AC2AAF"/>
			<stop  offset="0.4551" style="stop-color:#8D2BA2"/>
			<stop  offset="0.6467" style="stop-color:#782C98"/>
			<stop  offset="0.8311" style="stop-color:#6A2D93"/>
			<stop  offset="1" style="stop-color:#662D91"/>
		</linearGradient>
		<circle class="st0" cx="149.3" cy="111.2" r="107.2"/>
		<g>
			
				<image style="overflow:visible;opacity:0.4;" width="198" height="192" xlink:href="22ADED19B021B6CC.png"  transform="matrix(1 0 0 1 54.1998 13.1998)">
			</image>
			<g>
				<path class="st1" d="M140.6,109.7C126,90,119.7,87.2,101.2,65.4c-0.3-0.4-0.1-1,0.3-1.1c0,0,0,0,0,0c10.8-2.8,21.6-0.5,32.1,9.7
					c6.1,6,9.6,13.5,11.8,21.7c0.7,2.7,1.3,5.5,1.8,8.2l4,0.8c-2.8-18.8-1.6-36.3-2.2-58.5c0-0.5,0.5-0.8,0.9-0.6c0,0,0,0,0,0
					c10.1,4.7,17,13.3,18.6,27.9c1,8.5-1.2,16.6-4.6,24.3c-1.4,3-2.9,5.9-4.6,8.6l48,10.1c1.1,0.2,1.8,1.3,1.5,2.4
					c-1.9,7.5-12.2,33.3-65.2,28.2c-0.2,6.1-0.3,10.3-0.3,10.3c-0.1,14,8.2,44,42.6,35.8c0.1,0,0.2-0.1,0.3-0.1
					c31.7-13.9,54.1-45.2,54.9-81.8c1.2-51.8-41.2-94.5-93-93.7C98.2,18.4,58,59.1,58,109.2c0,19.7,6.2,37.9,16.8,52.8
					c7.2,10.1,22.3,9.8,29.2-0.5"/>
			</g>
		</g>
		<g>
			
				<image style="overflow:visible;opacity:0.4;" width="24" height="24" xlink:href="22ADED19B021B6CD.png"  transform="matrix(1 0 0 1 149.1998 113.1998)">
			</image>
			<g>
				<circle class="st1" cx="158.2" cy="121.9" r="4.5"/>
			</g>
		</g>
	</g>
	
		<linearGradient id="SVGID_00000050646682295169110040000013604556528318028463_" gradientUnits="userSpaceOnUse" x1="170.2727" y1="395" x2="170.2727" y2="146.843">
		<stop  offset="0" style="stop-color:#E027C5"/>
		<stop  offset="5.961227e-02" style="stop-color:#D328BF"/>
		<stop  offset="0.2584" style="stop-color:#AC2AAF"/>
		<stop  offset="0.4551" style="stop-color:#8D2BA2"/>
		<stop  offset="0.6467" style="stop-color:#782C98"/>
		<stop  offset="0.8311" style="stop-color:#6A2D93"/>
		<stop  offset="1" style="stop-color:#662D91"/>
	</linearGradient>
	<path style="fill:url(#SVGID_00000050646682295169110040000013604556528318028463_);" d="M328.7,303.7L328.7,303.7
		c-2-1.9-4.6-2.9-7.3-2.9c-1.4,0-2.8,0.3-4,0.8c0.2-0.9,0.3-1.8,0.3-2.8v-0.7l-0.1-0.6c-0.2-1.3-0.6-2.7-1.1-4.2
		c-0.7-2-1.8-3.9-3.3-5.4c-1.4-1.5-3.1-2.7-5.2-3.6c-2.1-1-4.6-1.4-7.4-1.4c-5.7,0-11.1,1.6-16,4.7c-4.1,2.6-7.7,6-10.8,9.9l0,0
		c-0.2-1.3-0.6-2.7-1.1-4.2c-0.7-2-1.8-3.9-3.3-5.4c-1.4-1.5-3.1-2.7-5.2-3.6c-1.6-0.7-3.4-1.2-5.4-1.4c1.6-1.9,2.9-4,3.8-6.3
		c0.3-0.6,0.8-1.9,2-4.5c1-2.2,2-4.4,3-6.7l1.8-4c3.1-1.8,6.3-4.2,9.4-7.1c3.7-3.4,7.4-7.3,10.8-11.5c3.4-4.1,6.6-8.5,9.5-13.1
		c2.9-4.6,5.4-8.9,7.5-13l0.4-0.7l0.2-0.8c0.3-1.3,0.5-2.3,0.5-3.2c0-3.2-1.3-6.1-3.8-8l0,0c-2-1.6-4.5-2.5-7.1-2.5
		c-0.5,0-1,0-1.5,0.1c0.3-1.4,0.4-2.7,0.4-3.9c0-3.1-0.7-5.9-2.2-8.2c-1.2-1.9-2.7-3.5-4.5-4.8c-1.7-1.2-3.6-2.1-5.5-2.6
		c-1.7-0.4-3.2-0.7-4.7-0.7c-3.1,0-6,0.7-8.6,2.2c-2.5,1.4-4,3-4.9,4.5c-0.8-1-1.7-1.9-2.7-2.7c-1.7-1.3-3.6-2.2-5.6-2.8
		c-1.8-0.5-3.6-0.8-5.3-0.8c-1.7,0-3.3,0.2-4.9,0.6c-1-1.6-2.1-3-3.4-4.1c-1.4-1.3-3-2.4-4.7-3.1c-2-0.9-3.8-1.3-5.6-1.3
		c-1.4,0-2.7,0.2-3.8,0.7c0.2-0.6,0.4-1.2,0.6-1.8c1.2-3.8,1.8-7,1.8-9.7c0-3-0.6-5.6-1.9-7.9c-1.2-2.2-2.9-4-4.9-5.3
		c-1.7-1.1-3.5-1.9-5.5-2.4c-1.7-0.4-3.3-0.6-4.8-0.6c-3,0-5.8,0.6-8.2,1.8c-5.7,2.8-6.3,7.4-6.3,9.2c0,0.7,0.1,1.4,0.2,2.1
		c-0.1,0.3-0.2,0.7-0.4,1.2c-0.6,1.9-1.5,4.2-2.6,6.9c-1.1,2.8-2.5,5.8-4,9.1c-1.6,3.4-3.1,6.9-4.7,10.4c-0.3,0.8-0.7,1.5-1,2.3
		c-0.1-0.1-0.1-0.2-0.2-0.2c-1.4-2.1-3.2-3.8-5.4-5c-2-1.2-4.1-2-6.3-2.4c-1.8-0.3-3.3-0.5-4.7-0.5c-7.4,0-14.5,2.7-21.2,7.9
		c-1.8,1.4-3.5,3-5.1,4.8c-0.3-1.2-0.7-2.3-1.2-3.3c-1.2-2.3-2.7-4.2-4.6-5.7c-1.7-1.3-3.6-2.2-5.6-2.8c-1.8-0.5-3.6-0.8-5.3-0.8
		c-3,0-5.8,0.6-8.2,1.9c-2.6,1.4-4.1,3.1-5,4.7c-0.9-1.2-1.9-2.2-3-3c-1.7-1.3-3.6-2.2-5.6-2.8c-1.8-0.5-3.6-0.8-5.3-0.8
		c-2.1,0-4.1,0.3-5.9,0.9c0.6-2,1.2-3.8,1.9-5.4c0.7-1.8,1.4-3.3,2.2-4.6c0.4-0.6,0.6-0.8,0.7-0.9l0.1-0.1l0.2-0.1
		c4.5-2.9,5.2-6.8,5.2-8.8c0-2-0.6-5-3.5-7.7c-1.4-1.3-3.1-2.4-5.1-3.2c-1.6-0.7-3.5-1.3-5.5-1.7c-2-0.4-4.1-0.6-6.2-0.6
		c-2.7,0-5.5,0.5-8.3,1.4c-2.9,1-5.5,2.4-7.6,4.3l-0.3,0.3l-0.3,0.3c-2.1,2.3-4,5.1-5.8,8.4c-1.5,2.9-3.1,6.1-4.5,9.5
		c-1.4,3.4-2.8,6.9-4.1,10.6c-1.2,3.5-2.4,7.1-3.4,10.5c-1,2.9-1.9,5.8-2.8,8.6c-0.9,2.8-1.8,5.4-2.7,7.9c-0.9,2.5-1.9,4.9-2.9,7.1
		c-0.1,0.1-0.1,0.3-0.2,0.4c-1.7-0.2-3.4-0.3-5.1-0.3c-3.9,0-7.5,0.5-10.8,1.6c-3.3,1.1-6.3,2.6-8.8,4.5c-2.6,1.9-4.7,4.2-6.3,6.7
		c-1.8,2.9-2.8,6-2.8,9.1c0,5.2,2.2,9.5,6.3,12.2c3.2,2.2,7,3.3,11.3,3.3c6.1,0,12.1-0.8,17.8-2.3c4.3-1.1,8.3-2.7,12.1-4.6
		c2.4,1.4,4.9,2.9,7.4,4.6c4,2.6,8.1,5.3,12.2,8c4.2,3,8.6,6,13,8.9c4.6,3,9.3,5.7,13.9,8.1c4.8,2.5,9.7,4.6,14.5,6.1
		c5.1,1.7,10.3,2.5,15.3,2.5c0,0,0,0,0.1,0c-1.8,2.8-3.3,5.7-4.4,8.6c-1.8,4.5-2.7,9.1-2.7,13.7c0,1.8,0.2,3.8,0.7,6.2
		c0.5,2.5,1.3,5,2.5,7.3c1.3,2.6,2.9,4.8,4.9,6.7c2.8,2.6,6.3,4,10.2,4c0.2,0,0.5,0,0.7,0c-0.6,1.6-1.1,3.2-1.6,4.8
		c-1.4,4.1-2.5,7.9-3.3,11.2c-1,3.8-1.4,6.9-1.4,9.4c0,0.8,0,1.4,0.1,2c0.1,0.8,0.3,1.7,0.5,2.5l-0.1,0c1.6,5.1,4.6,7.7,6.8,9
		c2.7,1.5,5.5,2.3,8.4,2.3c3.2,0,6-0.7,8.4-2.2c3.5-2.1,5.4-5.4,5.4-9.1v-0.5c0-0.2,0-1.1,0.7-3.4c0.6-2.1,1.3-4.4,2.3-7.1
		c0.6-1.8,1.4-3.7,2.1-5.7c0.8,0.3,1.7,0.5,2.5,0.7c0.4,0.1,0.8,0.1,1.2,0.2c0.5,0.3,1.1,0.7,1.8,1.3c1.3,1.1,2.7,2.4,4.1,4
		c1.5,1.6,3.1,3.5,4.6,5.4c1.7,2.1,3.4,4.3,5.2,6.6c2.6,3.3,5.2,6.5,7.8,9.7c2.8,3.4,5.6,6.5,8.5,9.2c3.1,2.9,6.2,5.4,9.4,7.3
		c3.9,2.3,7.9,3.4,12,3.4c3.4,0,6.5-0.9,9.2-2.7c2.2-1.4,4-3.2,5.5-5.1c1.4-1.9,2.5-3.9,3.3-6.1c0.8-2.2,1.2-4.2,1.2-5.9
		c0-6.6-4.8-10.1-9.6-10.1h-1c-1.9,0-3.6-0.4-5.4-1.1c-2.2-0.9-4.4-2.2-6.5-3.7c-2.3-1.7-4.7-3.6-6.9-5.7c-2.4-2.3-4.8-4.6-7.2-7
		c-1.7-1.8-3.6-3.6-5.6-5.5c0.9-0.5,1.7-1,2.6-1.6c3.8-2.5,7.3-5.5,10.4-8.7c0.2,1.3,0.5,2.6,0.9,3.8c0.9,2.7,2.2,5.2,3.8,7.3
		c1.8,2.3,4.1,4.1,6.8,5.4c2.7,1.3,5.7,1.9,8.9,1.9c4.1,0,8-1.1,11.5-3.3c2.9-1.8,5.6-4.1,7.9-6.7c1.6-1.8,3.1-3.8,4.5-5.8
		c0.1,0.4,0.2,0.8,0.4,1.2c0.9,2.7,2.2,5.2,3.8,7.3c1.8,2.3,4.1,4.1,6.8,5.4c2.7,1.3,5.7,1.9,8.9,1.9c4.1,0,8-1.1,11.5-3.3
		c2.9-1.8,5.6-4.1,7.9-6.7c2.2-2.5,4.2-5.2,5.8-8c0.7-1.2,1.3-2.3,1.9-3.4c0.8-0.1,1.7-0.3,2.5-0.5c2.4-0.5,4.6-1.3,6.7-2.2
		c2.3-1,4.3-2.3,6-3.9c2-1.7,3.5-3.7,4.5-6l0.3-0.6l0.2-0.6c0.2-0.7,0.3-1.2,0.4-1.5l0-0.1c0.1-0.7,0.2-1.4,0.2-2.1
		C332,308.4,330.8,305.7,328.7,303.7z M232.9,294.1c-0.1-0.7-0.3-1.3-0.4-2c0.7,0.1,1.4,0.2,2.1,0.3
		C234,293,233.4,293.5,232.9,294.1z M209.4,263.5c-4.4-2.2-9.1-3.7-13.8-4.5c-4.5-0.8-8.6-1.2-12.4-1.2h-0.1l-0.1,0
		c-4.5,0.1-9,0.8-13.6,2.2c-4.2,1.2-8.3,2.9-12.2,5c0-3.2-0.7-6-2.2-8.4c-0.1-0.2-0.2-0.4-0.4-0.6c5-0.1,10-1.6,14.8-4.5
		c1.1-0.6,2.1-1.3,3.2-2c1.2,1.7,2.6,3.1,4.2,4.1c2.7,1.7,5.6,2.6,8.6,2.6c3,0,5.7-0.8,8.1-2.3c3.3-2.1,5.2-5.4,5.2-9
		c0-0.8-0.1-1.5-0.3-2.3c0.2-0.9,0.7-2.8,2.3-6.5c0.9-2.1,2-4.4,3.1-6.9c0.6,1.7,1.3,3.5,2,5.5c1,2.9,2.1,6,3.3,9.2
		c1.2,3.3,2.6,6.5,3.9,9.7c1.5,3.3,3.1,6.5,4.8,9.4c0.3,0.6,0.7,1.1,1,1.6c-0.4,0.5-0.8,1-1.1,1.5c-0.4,0.6-0.8,1.2-1.1,1.8
		C214.4,266.3,211.9,264.8,209.4,263.5z M177.5,211.9c0.1,0,0.1,0,0.2,0c-0.7,1.3-1.6,2.7-2.5,4.2c-2,3-4.2,5.9-6.6,8.7
		c-2.3,2.5-4.6,4.7-7,6.3c0.1-1.1,0.3-2.2,0.6-3.4c0.5-2.3,1.3-4.4,2.1-6.2c2.2-4.7,4.3-8.6,6.3-11.6
		C172.6,211.2,175,211.9,177.5,211.9z M104.8,250.1c0.2,0.2,0.3,0.4,0.5,0.6c-0.3-0.1-0.6-0.2-0.9-0.3
		C104.5,250.3,104.6,250.2,104.8,250.1z M128.1,252.7c2.3-1.5,4.6-3.3,6.8-5.5c0.1,0.1,0.1,0.1,0.2,0.2c1.5,1.9,3.3,3.5,5.4,4.9
		c-2.1,0.5-4.1,0.9-6,1.2c-3,0.4-5.9,0.6-8.6,0.6c-0.1,0-0.1,0-0.2,0C126.5,253.7,127.3,253.3,128.1,252.7z M182.7,321.9
		c1.6-4.1,3.1-8.2,4.5-11.9c1.4-3.9,2.5-7.6,3.4-11c1-3.9,1.5-7.1,1.5-9.9c0-2.2-0.4-4.2-1.1-6c1.4,0.9,2.7,2,3.8,3.1
		c1.6,1.7,2.7,3.6,3.6,5.7c0.8,2.2,1.2,4.4,1.2,6.9c0,3.4-0.7,6.6-2,9.7c-1.4,3.2-3.3,6.1-5.6,8.6c-2.3,2.5-5,4.6-8.1,6.2
		c-0.7,0.4-1.4,0.7-2.1,1C182.1,323.5,182.4,322.7,182.7,321.9z M227.5,219.7c-0.6-1.1-1.2-2.1-1.8-3.1l-0.1-0.1l-0.1-0.1
		c-0.3-0.5-0.5-0.9-0.8-1.3c0.6-0.3,1.2-0.5,1.8-0.8c1.3-0.6,2.6-1.3,3.8-1.9C229.3,214.8,228.4,217.3,227.5,219.7z"/>
	<g>
		
			<image style="overflow:visible;opacity:0.45;" width="323" height="239" xlink:href="22ADED19B021B6CB.png"  transform="matrix(1 0 0 1 9.289 151.289)">
		</image>
		<g>
			<g>
				<g>
					<path class="st1" d="M223.2,288c1.2,3.3,1.9,6.5,1.9,9.6c0,4.1-0.9,8.2-2.7,12.3c-1.8,4.1-4.3,7.8-7.4,11.2
						c-3.1,3.4-6.7,6.4-10.7,9c-4.1,2.6-8.4,4.5-12.9,5.7c2.3,1.7,4.8,3.6,7.4,5.9c2.6,2.3,5,4.5,7.2,6.7c2.4,2.3,4.9,4.6,7.4,6.9
						c2.5,2.3,5.1,4.4,7.7,6.2c2.6,1.8,5.3,3.3,8.1,4.4c2.8,1.1,5.6,1.7,8.5,1.7h1c1.2,0,1.9,0.8,1.9,2.3c0,0.9-0.2,2-0.7,3.3
						c-0.5,1.3-1.2,2.6-2.2,3.8c-1,1.2-2.2,2.3-3.6,3.2c-1.5,0.9-3.1,1.4-5,1.4c-2.7,0-5.4-0.8-8.1-2.3c-2.7-1.5-5.4-3.5-8-6
						c-2.7-2.5-5.3-5.2-7.9-8.3c-2.6-3.1-5.2-6.2-7.8-9.3c-1.8-2.2-3.5-4.3-5.2-6.4c-1.7-2.1-3.4-4-5-5.7c-1.7-1.7-3.3-3.2-4.8-4.5
						c-1.6-1.3-3.1-2.2-4.5-2.8c-0.6-0.1-1.3-0.2-2-0.3c-0.7-0.1-1.4-0.3-2-0.6c-0.6-0.3-1.2-0.6-1.6-1.1c-0.5-0.5-0.7-1.1-0.7-1.8
						c0-0.7,0.3-1.4,0.8-1.9c0.6-0.6,1.2-0.9,2-1c4.4-0.3,8.5-1.4,12.4-3.3c3.9-2,7.3-4.5,10.3-7.5c2.9-3.1,5.3-6.5,7.1-10.5
						c1.8-3.9,2.6-8,2.6-12.4c0-3.3-0.6-6.4-1.8-9.3c-1.2-3-2.9-5.6-5.1-7.9c-2.2-2.3-5-4.3-8.2-5.8c-3.2-1.5-6.8-2.5-10.8-2.8
						c-3.2,0.2-6.2,0.8-9.1,1.9c-2.9,1.1-5.6,2.5-8.1,4.3c-2.5,1.8-4.8,3.8-6.9,6.1c-2.1,2.3-3.9,4.7-5.3,7.3
						c-1.5,2.6-2.6,5.2-3.4,7.8c-0.8,2.7-1.2,5.2-1.2,7.7c0,2.1,0.3,4.2,0.9,6.1c0.6,1.9,1.5,3.6,2.9,5.1c0.2,0.3,0.3,0.5,0.4,0.7
						c0,0.2,0.1,0.4,0.1,0.6c0,0.5-0.2,1-0.7,1.5c-0.5,0.6-1.1,1.1-1.9,1.5c-0.8,0.5-1.6,0.9-2.6,1.2c-1,0.3-1.9,0.5-2.9,0.5
						c-1.9,0-3.6-0.6-4.9-1.8c-1.3-1.2-2.5-2.7-3.3-4.4c-0.9-1.7-1.5-3.5-1.9-5.3c-0.4-1.8-0.6-3.3-0.6-4.5c0-3.5,0.7-7,2.1-10.5
						c1.4-3.5,3.4-6.8,5.9-9.9c2.5-3.2,5.4-6.1,8.7-8.8c3.3-2.7,6.8-5,10.5-7c3.7-2,7.6-3.6,11.6-4.7c4-1.1,7.9-1.7,11.7-1.8
						c3.4,0,7.1,0.3,11.1,1c4,0.7,8,1.9,11.8,3.7c3.8,1.8,7.3,4.3,10.5,7.4C218.9,279.2,221.4,283.2,223.2,288z M144.9,357
						c-0.1-0.4-0.2-0.8-0.3-1.1c0-0.3-0.1-0.7-0.1-1.2c0-1.8,0.4-4.2,1.2-7.3c0.8-3.1,1.8-6.5,3.2-10.3c1.3-3.8,2.8-7.8,4.4-12.1
						c1.6-4.3,3.2-8.5,4.8-12.7c1.2-3.3,2.5-6.4,3.6-9.4c1.2-3,2.2-5.8,3.1-8.3c0.9-2.5,1.6-4.7,2.1-6.6c0.6-1.9,0.8-3.3,0.8-4.2
						c0-0.3,0-0.4,0.1-0.3c0,0.1,0,0.1-0.1,0c-0.3-0.2-0.5-0.5-0.5-1c0-0.7,0.8-1.3,2.4-1.9c1.6-0.6,3.4-0.9,5.3-0.9
						c1.1,0,2.2,0.1,3.2,0.3c1,0.2,1.9,0.6,2.7,1.1c0.8,0.6,1.4,1.3,1.9,2.2c0.4,0.9,0.7,2,0.7,3.4c0,2.1-0.4,4.6-1.2,7.7
						c-0.8,3.1-1.9,6.4-3.2,10c-1.3,3.6-2.8,7.3-4.4,11.3c-1.6,3.9-3.2,7.8-4.8,11.6c-1.4,3.3-2.7,6.6-4,9.7
						c-1.3,3.2-2.5,6.1-3.5,8.9c-1,2.8-1.9,5.2-2.5,7.4c-0.6,2.2-0.9,4-0.9,5.3v0.5c0,0.9-0.6,1.7-1.8,2.4c-1.2,0.7-2.6,1-4.4,1
						c-1.5,0-3-0.4-4.5-1.2c-1.5-0.8-2.6-2.3-3.3-4.4L144.9,357z"/>
					<path class="st1" d="M265.7,296.1c0,1.5-0.4,2.7-1.3,3.4c-0.9,0.8-1.9,1.1-3,1.1c-1.1,0-2.1-0.3-3-1c-0.9-0.7-1.3-1.5-1.3-2.7
						c0-1.2,0.4-2.1,1.2-2.8c-0.3-0.1-0.5-0.2-0.5-0.2c-1,0-2.2,0.5-3.4,1.6c-1.2,1.1-2.5,2.5-3.8,4.2c-1.3,1.8-2.6,3.8-3.8,6
						c-1.2,2.2-2.4,4.5-3.3,6.9c-1,2.4-1.7,4.7-2.3,6.9c-0.6,2.3-0.9,4.3-0.9,6.1c0,1.5,0.3,2.9,0.8,4c0.6,1.1,1.4,1.7,2.6,1.7
						c0.8,0,1.8-0.5,2.9-1.4c1.1-1,2.2-2.2,3.3-3.6c1.1-1.5,2.3-3.1,3.4-4.8c1.1-1.7,2.1-3.4,2.9-4.9c-1.2-0.7-2.1-1.5-2.6-2.5
						c-0.5-1-0.7-2.2-0.7-3.5c0-0.9,0.1-1.7,0.4-2.6c0.3-0.9,0.7-1.6,1.2-2.3c0.6-0.7,1.2-1.3,2-1.7c0.8-0.4,1.6-0.6,2.6-0.6
						c0.4,0,0.9,0,1.6,0.1c0.7,0,1.3,0.2,1.9,0.5c0.6,0.3,1.2,0.8,1.6,1.5c0.4,0.7,0.7,1.8,0.7,3.1c0,0.6-0.1,1.3-0.2,2.1
						c-0.1,0.8-0.3,1.6-0.5,2.4c2-0.2,3.7-0.6,5-1.1c1.3-0.5,2.4-1.1,3.2-1.7c0.8-0.6,1.4-1.2,1.8-1.8c0.4-0.6,0.6-1.1,0.8-1.4
						c0.5-1,1.3-1.5,2.4-1.5c0.8,0,1.4,0.3,2,0.8c0.6,0.5,0.9,1.2,0.9,1.9c0,0.2,0,0.4-0.1,0.5c0,0.2-0.1,0.5-0.3,0.9
						c-0.6,1.3-1.5,2.4-2.7,3.4c-1.2,1-2.6,1.8-4.1,2.5c-1.6,0.7-3.3,1.2-5.2,1.6c-1.9,0.4-3.8,0.6-5.8,0.7c-1,2-2.2,4.2-3.6,6.5
						c-1.5,2.3-3.1,4.5-5,6.6c-1.9,2.1-4,3.8-6.3,5.1c-2.3,1.4-4.8,2-7.5,2c-2.1,0-3.9-0.4-5.6-1.1c-1.7-0.8-3-1.8-4.1-3.1
						c-1.1-1.3-2-2.9-2.5-4.6c-0.6-1.8-0.9-3.6-0.9-5.5c0-3.9,0.7-7.9,2.2-12.1c1.5-4.2,3.6-8,6.2-11.5c2.7-3.5,5.8-6.4,9.5-8.6
						c3.7-2.3,7.6-3.4,11.9-3.4c1.7,0,3.2,0.2,4.3,0.7c1.1,0.5,2.1,1.1,2.8,1.8c0.7,0.7,1.3,1.6,1.6,2.5
						C265.3,294.2,265.5,295.2,265.7,296.1L265.7,296.1z"/>
					<path class="st1" d="M309.7,296.1c0,1.5-0.4,2.7-1.3,3.4c-0.9,0.8-1.9,1.1-3,1.1c-1.1,0-2.1-0.3-3-1c-0.9-0.7-1.3-1.5-1.3-2.7
						c0-1.2,0.4-2.1,1.2-2.8c-0.3-0.1-0.5-0.2-0.5-0.2c-1,0-2.2,0.5-3.4,1.6c-1.2,1.1-2.5,2.5-3.8,4.2c-1.3,1.8-2.6,3.8-3.8,6
						c-1.2,2.2-2.4,4.5-3.3,6.9c-1,2.4-1.7,4.7-2.3,6.9c-0.6,2.3-0.9,4.3-0.9,6.1c0,1.5,0.3,2.9,0.8,4c0.6,1.1,1.4,1.7,2.6,1.7
						c0.8,0,1.8-0.5,2.9-1.4c1.1-1,2.2-2.2,3.3-3.6c1.1-1.5,2.3-3.1,3.4-4.8c1.1-1.7,2.1-3.4,2.9-4.9c-1.2-0.7-2.1-1.5-2.6-2.5
						c-0.5-1-0.7-2.2-0.7-3.5c0-0.9,0.1-1.7,0.4-2.6c0.3-0.9,0.7-1.6,1.2-2.3c0.6-0.7,1.2-1.3,2-1.7c0.8-0.4,1.6-0.6,2.6-0.6
						c0.4,0,0.9,0,1.6,0.1c0.7,0,1.3,0.2,1.9,0.5c0.6,0.3,1.2,0.8,1.6,1.5c0.4,0.7,0.7,1.8,0.7,3.1c0,0.6-0.1,1.3-0.2,2.1
						c-0.1,0.8-0.3,1.6-0.5,2.4c2-0.2,3.7-0.6,5-1.1c1.3-0.5,2.4-1.1,3.2-1.7c0.8-0.6,1.4-1.2,1.8-1.8c0.4-0.6,0.6-1.1,0.8-1.4
						c0.5-1,1.3-1.5,2.4-1.5c0.8,0,1.4,0.3,2,0.8c0.6,0.5,0.9,1.2,0.9,1.9c0,0.2,0,0.4-0.1,0.5c0,0.2-0.1,0.5-0.3,0.9
						c-0.6,1.3-1.5,2.4-2.7,3.4c-1.2,1-2.6,1.8-4.1,2.5c-1.6,0.7-3.3,1.2-5.2,1.6c-1.9,0.4-3.8,0.6-5.8,0.7c-1,2-2.2,4.2-3.6,6.5
						c-1.5,2.3-3.1,4.5-5,6.6c-1.9,2.1-4,3.8-6.3,5.1c-2.3,1.4-4.8,2-7.5,2c-2.1,0-3.9-0.4-5.6-1.1c-1.7-0.8-3-1.8-4.1-3.1
						c-1.1-1.3-2-2.9-2.5-4.6c-0.6-1.8-0.9-3.6-0.9-5.5c0-3.9,0.7-7.9,2.2-12.1c1.5-4.2,3.6-8,6.2-11.5c2.7-3.5,5.8-6.4,9.5-8.6
						c3.7-2.3,7.6-3.4,11.9-3.4c1.7,0,3.2,0.2,4.3,0.7c1.1,0.5,2.1,1.1,2.8,1.8c0.7,0.7,1.3,1.6,1.6,2.5
						C309.4,294.2,309.6,295.2,309.7,296.1L309.7,296.1z"/>
				</g>
				<g>
					<path class="st1" d="M78.5,254.1c-4.2-2.7-8.3-5.3-12.4-7.9c-4.1-2.6-8-4.8-11.8-6.7c-4.3,2.5-9,4.4-14.2,5.8
						c-5.2,1.3-10.5,2-15.9,2c-2.8,0-5.1-0.6-7-1.9c-1.9-1.3-2.9-3.1-2.9-5.6c0-1.6,0.5-3.2,1.6-4.8c1.1-1.6,2.5-3.1,4.4-4.4
						c1.9-1.3,4.1-2.4,6.6-3.2c2.6-0.8,5.4-1.2,8.5-1.2c3.1,0,6.2,0.5,9.2,1.4c1.1-1.7,2.2-3.6,3.2-5.9c1-2.3,2-4.7,3-7.2
						c1-2.5,1.9-5.2,2.8-8c0.9-2.8,1.8-5.6,2.8-8.3c1-3.3,2.2-6.6,3.4-10c1.2-3.4,2.5-6.6,3.9-9.7c1.4-3.1,2.8-6,4.3-8.7
						c1.5-2.7,3-4.9,4.7-6.6c1.3-1.1,3-2,5-2.7c2-0.6,3.9-1,5.8-1c1.6,0,3.1,0.2,4.6,0.5c1.5,0.3,2.8,0.7,4,1.2
						c1.2,0.5,2.1,1.1,2.8,1.7c0.7,0.6,1.1,1.3,1.1,2c0,0.8-0.6,1.6-1.7,2.3c-1.3,0.7-2.4,1.8-3.4,3.4c-1,1.6-2,3.5-2.8,5.7
						c-0.9,2.2-1.7,4.7-2.5,7.4c-0.8,2.7-1.6,5.5-2.4,8.5c-1.1,3.9-2.3,7.8-3.6,11.9c-1.3,4.1-2.7,8-4.4,11.9
						c-1.7,3.9-3.7,7.5-6,10.8c-2.3,3.3-5,6.2-8.2,8.5c4.3,3,8.8,5.9,13.6,8.9c4.8,3,9.9,5.7,15.2,8.1c5.3,2.4,10.8,4.4,16.6,5.9
						c5.8,1.5,11.8,2.3,18.1,2.3c3.2,0,6.4-0.2,9.8-0.7c3.4-0.5,6.9-1.2,10.5-2.3c0.9,0,1.8,0.6,2.5,1.7c0.7,1.1,1.1,2.6,1.1,4.3
						c0,1.7-0.3,3.5-0.8,5.2c-0.6,1.7-1.5,3.2-2.8,4.6c-1.3,1.3-3.1,2.4-5.3,3.2c-2.2,0.8-5,1.2-8.3,1.2c-4.3,0-8.6-0.7-13-2.1
						c-4.4-1.4-8.9-3.2-13.3-5.4c-4.5-2.2-8.9-4.7-13.3-7.5C87,259.8,82.7,257,78.5,254.1z"/>
					<path class="st1" d="M147.6,213.4c-0.6,1.3-1.6,3-2.8,5.2c-1.2,2.2-2.7,4.5-4.3,7c-1.7,2.5-3.5,5-5.5,7.6c-2,2.5-4,4.9-6.1,7
						c-2.1,2.1-4.2,3.8-6.3,5.1c-2.1,1.3-4.2,2-6.2,2c-3.1,0-5.5-1-7.2-3.1c-1.7-2.1-2.5-5-2.5-8.6c0-0.4,0-0.6-0.1-0.6
						c0-0.1,0-0.1,0.1-0.1c0,0,0.1,0,0.1-0.1c-2.8,3.4-5.7,6.4-8.8,8.8c-3.1,2.5-6,3.7-8.8,3.7c-3.1,0-5.5-1-7.2-3.1
						c-1.7-2.1-2.5-5-2.5-8.6c0-1.9,0.3-4,0.8-6.3c0.6-2.3,1.3-4.6,2.2-7c0.9-2.4,1.9-4.8,3-7.2c1.1-2.4,2.1-4.7,3.1-6.8
						c1.3-2.7,2.4-5.3,3.4-7.6c1-2.4,1.5-4.1,1.5-5.1c0-0.2-0.1-0.4-0.2-0.7c-0.2-0.2-0.3-0.3-0.4-0.4c-0.1-0.1-0.1-0.4-0.1-0.7
						c0-0.8,0.7-1.6,2-2.2c1.3-0.6,2.9-1,4.7-1c1,0,2.1,0.2,3.2,0.5c1.1,0.3,2.1,0.8,3.1,1.5c0.9,0.7,1.7,1.6,2.4,2.8
						c0.6,1.2,0.9,2.7,0.9,4.6c0,1.7-0.3,3.6-1,5.6c-0.7,2.1-1.5,4.3-2.6,6.6s-2.2,4.5-3.5,6.8c-1.3,2.2-2.5,4.4-3.7,6.4
						c-1.7,2.9-3.2,5.6-4.5,8.1c-1.3,2.5-2,4.3-2,5.5c0,0.5,0.3,0.7,0.8,0.7c0.9,0,2.1-0.8,3.8-2.4c1.7-1.6,3.5-3.7,5.5-6.2
						c2-2.5,3.9-5.1,5.9-8c1.9-2.8,3.6-5.5,4.9-8c0.5-1,1-2.1,1.6-3.2c0.6-1.2,1.1-2.3,1.5-3.2c1.3-2.9,2.5-5.5,3.6-7.7
						c1-2.3,1.5-4,1.5-5.1c0-0.2-0.1-0.4-0.2-0.7c-0.2-0.2-0.3-0.3-0.4-0.4c-0.1-0.1-0.1-0.4-0.1-0.7c0-0.8,0.7-1.6,2-2.2
						c1.3-0.6,2.9-1,4.7-1c1,0,2.1,0.2,3.2,0.5c1.1,0.3,2.1,0.8,3.1,1.5c0.9,0.7,1.7,1.6,2.4,2.8c0.6,1.2,0.9,2.7,0.9,4.6
						c0,1.7-0.3,3.6-1,5.6c-0.7,2.1-1.5,4.3-2.6,6.6s-2.2,4.5-3.5,6.8c-1.3,2.2-2.5,4.4-3.7,6.4c-1.7,2.9-3.2,5.6-4.5,8.1
						c-1.3,2.5-2,4.3-2,5.5c0,0.5,0.3,0.7,0.8,0.7c0.6,0,1.5-0.5,2.7-1.5c1.2-1,2.5-2.3,4-3.9c1.5-1.6,3-3.5,4.5-5.5
						c1.5-2,3-4.1,4.4-6.2c1.4-2.1,2.6-4.1,3.7-6c1.1-1.9,1.9-3.6,2.5-5c0.6-1.4,1.5-2.1,3-2.1c0.9,0,1.6,0.2,2.3,0.7
						c0.7,0.5,1,1.2,1,2c0,0.2,0,0.4-0.1,0.6C147.7,213.1,147.7,213.3,147.6,213.4z"/>
					<path class="st1" d="M171.6,200.3c0-1.4,0.5-2.4,1.4-3.2h-0.2c-2,0-4.4,1.8-7.4,5.5s-6.1,8.8-9.3,15.5c-1.1,2.3-2,4.8-2.7,7.5
						c-0.7,2.7-1,5.2-1,7.6c0,2.2,0.3,3.9,0.9,5c0.6,1.1,1.7,1.7,3.3,1.7c2.4,0,5.2-1,8.1-3c3-2,5.8-4.4,8.5-7.4
						c2.7-2.9,5.2-6,7.4-9.3c2.2-3.3,3.9-6.2,5-8.8c0.5-1.3,1.5-1.9,3-1.9c0.9,0,1.6,0.3,2.3,0.9c0.7,0.6,1,1.2,1,1.9l-0.4,1.4
						c-1.7,3.4-4,7.1-6.8,11.1c-2.8,4-5.9,7.6-9.3,11c-3.4,3.4-7.1,6.2-11,8.4c-3.9,2.2-7.8,3.3-11.7,3.3c-3.1,0-5.6-0.5-7.8-1.5
						c-2.1-1-3.8-2.3-5.1-3.9c-1.3-1.6-2.2-3.4-2.8-5.4c-0.6-2-0.9-3.9-0.9-5.8c0-2.4,0.4-5,1.1-7.6c0.7-2.6,1.5-5.1,2.5-7.3
						c3.8-8.9,8.4-15.3,13.7-19.4c5.3-4,10.8-6,16.5-6c0.9,0,2.1,0.1,3.4,0.3c1.3,0.2,2.5,0.7,3.7,1.4c1.2,0.7,2.2,1.6,3,2.7
						c0.8,1.1,1.2,2.6,1.2,4.4c0,2-0.5,3.4-1.5,4.2c-1,0.8-2.1,1.2-3.4,1.2c-1.3,0-2.4-0.4-3.4-1.1
						C172.1,202.7,171.6,201.6,171.6,200.3z"/>
					<path class="st1" d="M176.5,241.2c-0.2-0.4-0.3-0.7-0.3-1.1c0-0.3-0.1-0.7-0.1-1.1c0-1.9,0.6-4.6,1.7-8.1
						c1.1-3.5,2.6-7.5,4.4-11.9c1.8-4.4,3.8-8.9,6-13.7c2.2-4.7,4.3-9.4,6.5-13.8c1.6-3.4,3.1-6.8,4.7-10c1.5-3.3,2.9-6.3,4.1-9
						c1.2-2.7,2.1-5.1,2.8-7.1c0.7-2,1.1-3.4,1.1-4.3c0-0.2,0-0.3-0.1-0.3c-0.2-0.2-0.4-0.5-0.4-1c0-0.8,0.7-1.6,2-2.2
						c1.4-0.6,2.9-1,4.8-1c0.9,0,1.9,0.1,3,0.4c1.1,0.3,2.1,0.7,3.1,1.3c1,0.6,1.8,1.5,2.4,2.6c0.6,1.1,1,2.4,1,4
						c0,1.8-0.5,4.2-1.4,7.1c-1,2.9-2.2,6.2-3.8,9.7c-1.6,3.6-3.4,7.4-5.4,11.5c-2,4.1-4.1,8.1-6.2,12.3c2.5-1.9,5.2-3.9,8-6
						c2.8-2.1,5.4-4.2,7.8-6.2c2.4-2,4.3-3.7,5.9-5.3c1.5-1.6,2.3-2.7,2.3-3.5c0-1.1,0.7-1.7,2.1-1.7c0.6,0,1.4,0.2,2.4,0.6
						c0.9,0.4,1.9,1,2.7,1.8c0.9,0.8,1.6,1.7,2.3,2.8c0.6,1.1,0.9,2.3,0.9,3.6c0,2.1-0.9,4.1-2.6,6c-1.7,1.9-4,3.7-6.6,5.3
						c-2.7,1.6-5.7,3.2-8.9,4.7c-3.3,1.5-6.5,2.8-9.5,4c1,1.4,1.9,2.8,2.5,4.1c0.7,1.3,1.6,2.8,2.7,4.6c2.1,3.6,4.6,7.7,7.4,12.1
						c2.8,4.4,5.7,8.6,8.8,12.5c3.1,3.9,6.2,7.3,9.4,10.1c3.2,2.8,6.2,4.4,9,4.7c0.6,0.1,1.1,0.3,1.5,0.7c0.4,0.4,0.6,0.9,0.6,1.5
						c0,0.7-0.3,1.6-0.8,2.6c-0.6,1.1-1.4,2.1-2.4,3.1c-1.1,1-2.4,1.8-4,2.6c-1.6,0.7-3.4,1.1-5.6,1.1c-2.5,0-4.9-0.6-7.1-1.8
						c-2.2-1.2-4.2-2.8-6-4.7c-1.9-2-3.6-4.3-5.2-6.9c-1.6-2.6-3.1-5.4-4.4-8.3c-1.3-2.9-2.6-5.9-3.8-8.9c-1.2-3-2.3-6-3.3-8.8
						c-1.6-4.3-3-8-4.3-11.1c-1.3-3.2-2.4-5.1-3.6-5.9c-0.9,0.4-1.7,0.8-2.4,1.1c-0.7,0.4-1.3,0.8-1.8,1.1c-3,5.9-5.5,11-7.6,15.6
						c-2.1,4.5-3.1,7.8-3.1,9.7c0,0.5,0,0.8,0.1,0.9v-0.1c0.2,0.2,0.2,0.5,0.2,0.9c0,0.9-0.6,1.7-1.7,2.4c-1.1,0.7-2.4,1-3.9,1
						c-1.5,0-3-0.5-4.5-1.4c-1.5-0.9-2.7-2.6-3.6-5L176.5,241.2z"/>
					<path class="st1" d="M222.2,272.6c0-1.4,0.4-2.6,1.2-3.7c0.8-1.1,1.8-2.1,3.1-3.1c1.3-1,2.8-1.8,4.4-2.7c1.7-0.8,3.3-1.6,5-2.4
						c1.7-0.8,3.3-1.6,5-2.5c1.7-0.9,3.1-1.8,4.3-2.7c0.6-1.7,1.4-3.7,2.4-6c1-2.2,2.1-4.7,3.4-7.4c-1.8,1.5-3.6,2.7-5.5,3.6
						c-1.8,0.9-3.6,1.4-5.3,1.4c-3,0-5.3-1.1-6.9-3.2c-1.6-2.2-2.4-5-2.4-8.5c0-1.9,0.3-4,0.8-6.3c0.6-2.3,1.3-4.6,2.2-7
						c0.9-2.4,1.9-4.8,3-7.2c1.1-2.4,2.1-4.7,3.1-6.8c1.3-2.7,2.4-5.3,3.4-7.6c1-2.4,1.5-4.1,1.5-5.1c0-0.2-0.1-0.4-0.2-0.7
						c-0.2-0.2-0.3-0.3-0.4-0.4c-0.1-0.1-0.1-0.4-0.1-0.7c0-0.8,0.7-1.6,2-2.2c1.3-0.6,2.9-1,4.7-1c1,0,2.1,0.2,3.2,0.5
						c1.1,0.3,2.1,0.8,3.1,1.5s1.7,1.6,2.4,2.8c0.6,1.2,0.9,2.7,0.9,4.6c0,1.7-0.3,3.6-1,5.6c-0.7,2.1-1.5,4.3-2.6,6.6
						c-1.1,2.3-2.2,4.5-3.5,6.8c-1.3,2.2-2.5,4.4-3.7,6.4c-1.7,2.9-3.2,5.6-4.5,8.1c-1.3,2.5-2,4.3-2,5.5c0,0.5,0.3,0.7,0.8,0.7
						c0.9,0,2.2-0.8,3.9-2.5c1.7-1.7,3.5-3.7,5.5-6.2c2-2.5,3.9-5.1,5.9-8c1.9-2.9,3.6-5.5,4.9-8c2.1-4.4,3.8-8.4,5.3-12
						c1.5-3.6,2.2-6.2,2.2-7.8c0-0.2,0-0.4-0.1-0.5c0-0.1-0.1-0.2-0.2-0.3v0.1c-0.2-0.3-0.2-0.6-0.2-0.9c0-0.7,0.7-1.4,2.1-2.2
						c1.4-0.8,3-1.1,4.9-1.1c0.8,0,1.7,0.1,2.8,0.4c1.1,0.3,2.1,0.7,3,1.4c0.9,0.6,1.8,1.5,2.4,2.5c0.7,1,1,2.3,1,3.9
						c0,1.8-0.5,4.3-1.6,7.4c-1.1,3.1-2.4,6.5-4,10.1c-1.6,3.6-3.4,7.3-5.2,11.1c-1.9,3.8-3.5,7.2-5,10.3c-0.6,1.3-1.2,2.3-1.6,3.1
						c-0.4,0.8-0.8,1.4-1.1,1.8c-0.3,0.5-0.5,0.8-0.7,1.1c-0.2,0.3-0.3,0.6-0.4,1c2.7-2.1,5.4-4.6,8.1-7.6c2.7-3,5.2-6,7.5-9.1
						c2.3-3.1,4.4-6,6.1-8.9c1.7-2.8,3-5.1,3.7-6.9c0.3-0.8,0.8-1.4,1.3-1.8c0.6-0.3,1.1-0.5,1.8-0.5c0.9,0,1.6,0.2,2.3,0.7
						c0.6,0.5,0.9,1.2,0.9,2c0,0.2-0.1,0.6-0.2,1.3c-1.9,3.7-4.2,7.7-7.1,11.9c-2.8,4.2-5.8,8.2-9.1,12c-3.2,3.8-6.6,7.3-10.1,10.4
						c-3.5,3.1-6.9,5.5-10.2,7.1l-2.8,6.2c-1,2.2-2,4.4-3,6.5c-1,2.1-1.7,3.6-2.1,4.6c-0.7,1.7-1.7,3.3-3,4.6
						c-1.3,1.3-2.8,2.4-4.4,3.4c-1.6,0.9-3.4,1.6-5.3,2.1c-1.9,0.5-3.8,0.7-5.7,0.7c-1.7,0-3.3-0.2-4.9-0.6c-1.6-0.4-3-1-4.3-1.7
						c-1.3-0.8-2.4-1.7-3.3-2.9c-0.9-1.2-1.5-2.5-1.8-4V272.6z M232.9,276.1c1.6,0,3.1-0.9,4.6-2.6c1.5-1.7,3.1-5,5-9.8l-3.7,1.8
						c-1.2,0.5-2.3,1.1-3.5,1.6c-1.1,0.5-2.2,1.1-3.1,1.7c-0.9,0.6-1.7,1.2-2.3,1.8c-0.6,0.6-0.9,1.3-0.9,1.9c0,0.9,0.4,1.7,1.1,2.5
						C230.9,275.7,231.8,276.1,232.9,276.1z"/>
				</g>
			</g>
		</g>
	</g>
</g>
</svg>
